<svg data-name="big-cloud" xmlns="http://www.w3.org/2000/svg" viewBox="0 0 325.105 113.003"><defs><style>.cls-1{fill:#fff;}</style></defs><title>big-cloud</title><path id="big_cloud" data-name="big cloud" class="cls-1" d="M2627.862,600A24.853,24.853,0,0,0,2632,586.344c0-22.257-31.063-40.418-70.294-41.791a29.25,29.25,0,0,0,1.625-9.559c0-26.513-36.464-48-81.444-48-38.668,0-71.018,15.893-79.343,37.195a32.871,32.871,0,0,0-14.7-3.333c-14.473,0-26.206,8.685-26.206,19.4a15.651,15.651,0,0,0,3.486,9.661c-34.578,8.169-58.233,24.655-58.233,43.751a22.456,22.456,0,0,0,.9,6.332h320.066Z" transform="translate(-2306.895 -486.997)"/></svg>
