<?xml version="1.0" encoding="UTF-8"?>
<svg width="32px" height="16px" viewBox="0 0 32 16" version="1.1" xmlns="http://www.w3.org/2000/svg" xmlns:xlink="http://www.w3.org/1999/xlink">
    <!-- Generator: Sketch 54.1 (76490) - https://sketchapp.com -->
    <g id="infinity" stroke="none" stroke-width="1" fill="none" fill-rule="evenodd">
        <path class="infinity" d="M29.675919,2.31775701 C26.6771048,-0.77258567 21.7790416,-0.77258567 18.680267,2.31775701 L15.9813342,5.20872274 L13.2824014,2.41744548 C10.2835873,-0.672897196 5.38552409,-0.672897196 2.28674943,2.41744548 C-0.812025235,5.50778816 -0.712064762,10.5919003 2.28674943,13.682243 C5.28556361,16.7725857 10.1836268,16.7725857 13.2824014,13.682243 L15.9813342,10.8909657 L18.680267,13.682243 C21.6790812,16.7725857 26.5771443,16.7725857 29.675919,13.682243 C32.7746937,10.4922118 32.7746937,5.50778816 29.675919,2.31775701 Z M10.4835082,10.7912773 C8.98410111,12.3862928 6.48508929,12.3862928 4.98568219,10.7912773 C3.4862751,9.19626168 3.4862751,6.70404984 4.98568219,5.10903427 C6.48508929,3.51401869 8.98410111,3.51401869 10.4835082,5.10903427 L13.182441,7.90031153 L10.4835082,10.7912773 Z M26.9769862,10.7912773 C25.4775791,12.3862928 22.9785673,12.3862928 21.4791602,10.7912773 L18.680267,8 L21.3791998,5.20872274 C22.8786068,3.61370717 25.3776187,3.61370717 26.8770258,5.20872274 C28.4763933,6.70404984 28.4763933,9.29595016 26.9769862,10.7912773 Z" fill="#000000" fill-rule="nonzero"></path>
    </g>
</svg>
