<svg data-name="medium-cloud" xmlns="http://www.w3.org/2000/svg" viewBox="0 0 284.135 89.725"><defs><style>.cls-1{fill:#fff;}</style></defs><title>medium-cloud</title><path class="cls-1" d="M1828.259,593.748H1556.726a4.764,4.764,0,0,1-3.808-1.915,17.983,17.983,0,0,1-4.053-10.984c0-12.781,14.736-23.288,33.675-24.646a4.74,4.74,0,0,0,4.378-4.282c2.738-26.808,31.877-47.9,67.419-47.9,20.288,0,38.477,6.888,50.872,17.777a4.625,4.625,0,0,0,5.015.694c9.7-4.508,24.306-7.378,40.65-7.378,29.216,0,52.9,9.17,52.9,20.479,0,3.422-2.169,6.631-6,9.455a4.737,4.737,0,0,0,.641,8.117c18.633,9.145,31.174,21.042,34.465,34.9A4.687,4.687,0,0,1,1828.259,593.748Z" transform="translate(-1548.865 -504.023)"/></svg>
