<svg xmlns="http://www.w3.org/2000/svg" viewBox="0 0 861.578 219.61"><title>super-mario-cards-logo</title><path d="M3831.049,581.042c-13.984,0-24.429,3.681-31.368,10.942a1.877,1.877,0,0,0-.681.937V590c1-.26.522-0.524,0.61-0.791a23.653,23.653,0,0,0,1.52-7.665A24.465,24.465,0,0,0,3800,573.91a16.151,16.151,0,0,0-5.558-7.858,19.619,19.619,0,0,0-8.225-3.523,44.621,44.621,0,0,0-8.492-.687,45.609,45.609,0,0,0-8.527.681,19.832,19.832,0,0,0-8.355,3.534,16.349,16.349,0,0,0-5.651,7.856,24.351,24.351,0,0,0-1.328,7.61,46.869,46.869,0,0,0-13.476,5L3736.837,583H3710v5.826a4.978,4.978,0,0,1-1.608-1.075c-6.567-4.515-15.479-6.709-27.258-6.709a104.832,104.832,0,0,0-30.686,4.143l-0.811.244L3648.571,568H3647v-3.838a27.078,27.078,0,0,0,12.573-2.812,27.641,27.641,0,0,0,7.034-5.186c0.2,0.225.357,0.454,0.565,0.672,5.443,5.7,13.741,8.587,24.384,8.587A86.3,86.3,0,0,0,3708,563.717V565h37V537h10.35l-2.325-37.713-11.055,1.982a37.058,37.058,0,0,0-9.315,3.154L3730.841,503H3708v0.061c-2-.52-3.168-0.942-4.82-1.251a64.567,64.567,0,0,0-11.725-.906c-10.58,0-18.757,2.88-24.223,8.563-0.159.165-.328,0.34-0.483,0.51a25.92,25.92,0,0,0-7.568-5.983,27.805,27.805,0,0,0-13.16-2.881,32.948,32.948,0,0,0-11.344,2l-0.393-.115H3572.2l1.271-8.133-9.049-2.1A99.561,99.561,0,0,0,3542,490.4a51.623,51.623,0,0,0-11.766,1.173,23.973,23.973,0,0,0-10.742,5.417,22.554,22.554,0,0,0-6.432,10.277,40.139,40.139,0,0,0-1.57,11.962,33.726,33.726,0,0,0,1.3,9.708,22.421,22.421,0,0,0,1.362,3.469l-4.9,28.522,9.277,2.079a100.462,100.462,0,0,0,10.814,1.791,105.774,105.774,0,0,0,11.6.621c1.577,0,3.346-.038,5.253-0.112,2.181-.085,1.348,2.689,1.348,2.689l-5.826,95h112.55l-0.073-1.225a30.4,30.4,0,0,0,4.395,1.5,46.629,46.629,0,0,0,11.66,1.37,37.742,37.742,0,0,0,7.628-.788,45.134,45.134,0,0,0,7.329-2.165,39.2,39.2,0,0,0,4.953-2.315l3.547,3.626H3799V652.733a2.727,2.727,0,0,0,1.04,1.279c7.052,7.054,17.458,10.63,31.09,10.63,13.987,0,24.556-3.682,31.491-10.941,6.814-7.132,10.249-17.514,10.249-30.858s-3.465-23.724-10.281-30.859C3855.652,584.723,3845.033,581.042,3831.049,581.042Z" transform="translate(-3509.253 -490.403)"/><path d="M4206.481,615.972q-0.611-.809-1.267-1.568l4.544-26.458-8.178-2.7a88.74,88.74,0,0,0-27.835-4.2c-10.733,0-19.039,1.773-25.679,5.4a19.084,19.084,0,0,0-3.067,2.081V562.264l-44,3.3V583h-3.955a33.929,33.929,0,0,0-16.1,3.545,33.122,33.122,0,0,0-4.2,2.666l-0.605-9.845-11.055,1.873a47.164,47.164,0,0,0-14.9,5.288L4046.632,583H4020v6.325a26.451,26.451,0,0,1-2.212-1.573c-6.566-4.515-15.08-6.709-26.86-6.709a108.41,108.41,0,0,0-27.665,3.286l2.122-10.95-7.109-3.3a29.493,29.493,0,0,0-5.992-1.943c-1.883-.421-3.884-0.786-5.951-1.087-2.024-.293-4.1-0.533-6.163-0.715-2.187-.191-4.213-0.288-6.021-0.288-8.254,0-15.05,1.016-20.78,3.106a34.2,34.2,0,0,0-15.2,10.558,38.586,38.586,0,0,0-7.557,16.521,94.08,94.08,0,0,0-1.766,19.215,91.56,91.56,0,0,0,1.89,19.677,37.669,37.669,0,0,0,7.906,16.517,34.354,34.354,0,0,0,15.522,10.136c5.754,1.931,12.584,2.869,20.881,2.869,8.78,0,16.368-1.286,22.672-3.822l2.52-1.023a28.6,28.6,0,0,0,8.148,3.475,46.621,46.621,0,0,0,11.659,1.37,37.752,37.752,0,0,0,7.629-.788,45.134,45.134,0,0,0,7.329-2.165,39.2,39.2,0,0,0,4.953-2.315L4003.5,663H4064V631.747a24.255,24.255,0,0,0,.819,5.46,38.79,38.79,0,0,0,5.871,13.625,32.178,32.178,0,0,0,11.41,10.043,35.42,35.42,0,0,0,16.767,3.766c7.175,0,13.206-1.136,18.064-3.546l1.888,1.9H4145v-1.3a109.028,109.028,0,0,0,25.908,2.942c3,0,5.791-.092,8.453-0.273,2.707-.186,5.259-0.471,7.572-0.832a29.2,29.2,0,0,0,9.992-3.127,33.636,33.636,0,0,0,7.05-5.248l0.147-.149a23.81,23.81,0,0,0,5.94-10.472,41.973,41.973,0,0,0,1.484-11.5C4211.546,626.18,4209.843,620.439,4206.481,615.972Z" transform="translate(-3509.253 -490.403)"/><path d="M3540.946,553.507a98.266,98.266,0,0,1-10.775-.575,92.948,92.948,0,0,1-10-1.656,2.5,2.5,0,0,1-1.917-2.862l2.379-13.86a2.5,2.5,0,0,1,3.06-2,56.787,56.787,0,0,0,13.335,1.818c1.866,0,3.555-.029,5.027-0.085l-2.926-.244a39.868,39.868,0,0,1-9.151-1.81,16.732,16.732,0,0,1-6.443-3.849,14.163,14.163,0,0,1-3.565-6.017,26.305,26.305,0,0,1-.981-7.546,33.36,33.36,0,0,1,1.232-9.737,15.175,15.175,0,0,1,4.285-6.926,16.581,16.581,0,0,1,7.438-3.691,44.949,44.949,0,0,1,10.055-.976,92.09,92.09,0,0,1,20.727,2.165,2.5,2.5,0,0,1,1.9,2.821l-2.1,13.44a2.5,2.5,0,0,1-2.47,2.114,2.466,2.466,0,0,1-.4-0.032,81.287,81.287,0,0,0-12.134-1.228q-1.373,0-2.624.037l0.9,0.083a43.792,43.792,0,0,1,9.832,1.983,19.477,19.477,0,0,1,6.856,3.919,14.151,14.151,0,0,1,3.9,6.024,23.618,23.618,0,0,1,1.07,7.363,27.66,27.66,0,0,1-1.565,9.857,17.679,17.679,0,0,1-3.958,6.432,13.917,13.917,0,0,1-4.864,2.962,29.178,29.178,0,0,1-5.513,1.417,48.317,48.317,0,0,1-5.648.554C3544.1,553.471,3542.426,553.507,3540.946,553.507Z" transform="translate(-3509.253 -490.403)" style="fill:#fff"/><path d="M3542,495.987a89.175,89.175,0,0,1,20.16,2.1l-2.1,13.44a83.232,83.232,0,0,0-12.53-1.26,64.367,64.367,0,0,0-7.979.42v4.13l6.02,0.56a41.089,41.089,0,0,1,9.24,1.855,16.942,16.942,0,0,1,5.984,3.4,11.636,11.636,0,0,1,3.221,4.97,21.059,21.059,0,0,1,.944,6.58,25.1,25.1,0,0,1-1.4,8.96,15.163,15.163,0,0,1-3.36,5.53,11.35,11.35,0,0,1-3.99,2.415,26.524,26.524,0,0,1-5.04,1.295,45.627,45.627,0,0,1-5.355.525q-2.7.105-4.864,0.1a95.3,95.3,0,0,1-10.5-.56,90.043,90.043,0,0,1-9.729-1.61l2.379-13.86a58.958,58.958,0,0,0,13.931,1.89q3.149,0,5.565-.1a42.123,42.123,0,0,0,4.3-.385v-4.2l-7.561-.63a37.2,37.2,0,0,1-8.539-1.68,14.212,14.212,0,0,1-5.5-3.255,11.651,11.651,0,0,1-2.939-4.97,23.741,23.741,0,0,1-.875-6.825,30.75,30.75,0,0,1,1.12-8.995,12.658,12.658,0,0,1,3.569-5.81,14.072,14.072,0,0,1,6.336-3.115,42.3,42.3,0,0,1,9.484-.91m0-5a46.749,46.749,0,0,0-10.624,1.041,19.054,19.054,0,0,0-8.542,4.268,17.63,17.63,0,0,0-5,8.045,35.281,35.281,0,0,0-1.344,10.475,28.79,28.79,0,0,0,1.088,8.269,16.646,16.646,0,0,0,4.192,7.063l0.006,0.006a5,5,0,0,0-3.6,3.976l-2.379,13.86a5,5,0,0,0,3.835,5.725,95.48,95.48,0,0,0,10.27,1.7,100.767,100.767,0,0,0,11.053.59c1.513,0,3.215-.037,5.06-0.109a50.848,50.848,0,0,0,5.94-.582,31.656,31.656,0,0,0,5.986-1.541,16.36,16.36,0,0,0,5.719-3.494,19.835,19.835,0,0,0,4.571-7.346,30.116,30.116,0,0,0,1.733-10.757,26.122,26.122,0,0,0-1.194-8.141,16.637,16.637,0,0,0-4.578-7.082,17.858,17.858,0,0,0-1.452-1.2q0.134-.085.264-0.179a5,5,0,0,0,2-3.274l2.1-13.44a5,5,0,0,0-3.808-5.642,94.566,94.566,0,0,0-21.293-2.23h0Z" transform="translate(-3509.253 -490.403)"/><path d="M3584.766,553.507c-5.622,0-9.869-1.3-12.621-3.853-2.807-2.6-4.229-6.813-4.229-12.507v-29.4a2.5,2.5,0,0,1,2.5-2.5h16.8a2.5,2.5,0,0,1,2.5,2.5v28.51h0.09a10.725,10.725,0,0,0,3.237-.337,2.9,2.9,0,0,0,.073-0.733v-27.44a2.5,2.5,0,0,1,2.5-2.5h16.8a2.5,2.5,0,0,1,2.5,2.5v42a2.5,2.5,0,0,1-2.5,2.5h-8.4a2.5,2.5,0,0,1-1.742-.707l-3.1-3.015C3595.5,551.833,3590.663,553.507,3584.766,553.507Z" transform="translate(-3509.253 -490.403)" style="fill:#fff"/><path d="M3612.415,507.747v42h-8.4l-4.9-4.76q-5.039,6.021-14.35,6.02-7.491,0-10.92-3.185t-3.431-10.675v-29.4h16.8v31.01h2.59a11.4,11.4,0,0,0,4.445-.63q1.365-.63,1.365-2.94v-27.44h16.8m0-5h-16.8a5,5,0,0,1-8.4,0h-16.8a5,5,0,0,0-5,5v29.4c0,6.418,1.692,11.242,5.029,14.34,3.229,3,8.047,4.52,14.322,4.52a23.913,23.913,0,0,0,14.249-4.147l1.518,1.474a5,5,0,0,0,3.484,1.413h8.4a5,5,0,0,0,5-5v-42a5,5,0,0,0-5-5h0Z" transform="translate(-3509.253 -490.403)"/><path d="M3620.814,566.107a2.5,2.5,0,0,1-2.5-2.5v-55.86a2.5,2.5,0,0,1,2.5-2.5h8.4a2.5,2.5,0,0,1,2.016,1.021l1.27,1.73c3.108-2.665,7.637-4.012,13.515-4.012a20.436,20.436,0,0,1,9.641,2.111,18.189,18.189,0,0,1,6.44,5.637,22.8,22.8,0,0,1,3.469,7.975,41.211,41.211,0,0,1,.11,17.63,21.893,21.893,0,0,1-3.168,7.54,16.4,16.4,0,0,1-6.1,5.4,19.636,19.636,0,0,1-9.136,1.964h-7.16v10.1a2.5,2.5,0,0,1-2.313,2.493L3621,566.1C3620.938,566.1,3620.877,566.107,3620.814,566.107Zm19.391-29.85a10.715,10.715,0,0,0,3.236-.337,2.9,2.9,0,0,0,.073-0.733v-13.95h-0.09a22.531,22.531,0,0,0-2.632.121,0.988,0.988,0,0,0-.578.271c-0.023.022-.048,0.043-0.072,0.064,0.012,0-.015.089-0.027,0.265v14.3h0.09Z" transform="translate(-3509.253 -490.403)" style="fill:#fff"/><path d="M3646.015,506.487a17.909,17.909,0,0,1,8.47,1.82,15.64,15.64,0,0,1,5.565,4.865,20.236,20.236,0,0,1,3.08,7.1,38.72,38.72,0,0,1,.1,16.52,19.321,19.321,0,0,1-2.8,6.685,13.873,13.873,0,0,1-5.18,4.585,17.119,17.119,0,0,1-7.979,1.68h-9.66v12.6l-16.8,1.26v-55.86h8.4l3.08,4.2q3.709-5.46,13.72-5.46m-8.4,32.27h2.59a11.4,11.4,0,0,0,4.445-.63q1.364-.63,1.364-2.94v-16.45h-2.59a24.821,24.821,0,0,0-2.94.14,3.478,3.478,0,0,0-1.959.91,2.762,2.762,0,0,0-.91,2.1v16.87m8.4-37.27c-5.286,0-9.625,1.02-12.974,3.04a5,5,0,0,0-3.825-1.78h-8.4a5,5,0,0,0-5,5v55.86a5,5,0,0,0,5,5q0.186,0,.374-0.014l16.8-1.26a5,5,0,0,0,4.626-4.986v-7.6h4.66a22.091,22.091,0,0,0,10.292-2.247,18.88,18.88,0,0,0,7.012-6.222,24.374,24.374,0,0,0,3.536-8.4,43.712,43.712,0,0,0-.116-18.737,25.293,25.293,0,0,0-3.855-8.841,20.67,20.67,0,0,0-7.315-6.411,22.891,22.891,0,0,0-10.814-2.4h0Z" transform="translate(-3509.253 -490.403)"/><path d="M3691.373,553.507c-8.514,0-14.845-2.109-18.817-6.268-3.943-4.127-5.942-10.349-5.942-18.492s2.013-14.37,5.983-18.5c4-4.155,10.314-6.262,18.776-6.262a57.189,57.189,0,0,1,10.262.778,18.444,18.444,0,0,1,7.32,2.868,11.769,11.769,0,0,1,4.344,5.833,25.019,25.019,0,0,1,1.154,8.141,17.248,17.248,0,0,1-1.459,7.322,11.991,11.991,0,0,1-4.219,4.851,2.5,2.5,0,0,1,1.727,1.994l1.961,12.32a2.5,2.5,0,0,1-1.825,2.809A74.9,74.9,0,0,1,3691.373,553.507Zm-0.77-30.27a10.723,10.723,0,0,0,3.237-.337,2.9,2.9,0,0,0,.073-0.733v-0.93h-0.93a10.725,10.725,0,0,0-3.237.337,2.9,2.9,0,0,0-.073.733v0.93h0.93Z" transform="translate(-3509.253 -490.403)" style="fill:#fff"/><path d="M3691.373,506.487a54.492,54.492,0,0,1,9.8.735,15.932,15.932,0,0,1,6.335,2.45,9.269,9.269,0,0,1,3.431,4.62,22.49,22.49,0,0,1,1.014,7.315,14.712,14.712,0,0,1-1.225,6.265,9.794,9.794,0,0,1-4.095,4.305,22.7,22.7,0,0,1-7.63,2.485,72.65,72.65,0,0,1-11.83.805v2.94q1.26,0.141,2.52.21t2.521,0.07a52.306,52.306,0,0,0,15.819-2.52l1.961,12.32a72.082,72.082,0,0,1-18.621,2.52q-11.76,0-17.01-5.495t-5.25-16.765q0-11.27,5.285-16.765t16.975-5.495m-4.2,19.25h3.43a11.4,11.4,0,0,0,4.445-.63q1.365-.63,1.365-2.94v-3.43h-3.43a11.4,11.4,0,0,0-4.445.63q-1.365.63-1.365,2.94v3.43m4.2-24.25c-9.168,0-16.092,2.365-20.578,7.028-4.434,4.611-6.682,11.418-6.682,20.232s2.232,15.612,6.635,20.219c4.462,4.672,11.4,7.04,20.625,7.04a77.414,77.414,0,0,0,19.909-2.688,5,5,0,0,0,3.65-5.617l-1.961-12.32a5,5,0,0,0-.468-1.454,13.929,13.929,0,0,0,2.756-3.941,19.709,19.709,0,0,0,1.693-8.379,27.1,27.1,0,0,0-1.293-8.962,14.223,14.223,0,0,0-5.256-7.049,20.9,20.9,0,0,0-8.31-3.288,58.8,58.8,0,0,0-10.722-.82h0Z" transform="translate(-3509.253 -490.403)"/><path d="M3718.254,552.247a2.5,2.5,0,0,1-2.5-2.5v-42a2.5,2.5,0,0,1,2.5-2.5h8.4a2.5,2.5,0,0,1,1.781.746l3.008,3.054a27.47,27.47,0,0,1,11.85-5.021,2.5,2.5,0,0,1,2.937,2.307l0.979,15.89a2.5,2.5,0,0,1-2.5,2.654,10.16,10.16,0,0,0-1.891.232c-0.858.172-1.741,0.39-2.624,0.647a13.394,13.394,0,0,0-2.209.853c-0.17.085-.314,0.167-0.437,0.244v22.895a2.5,2.5,0,0,1-2.5,2.5h-16.8Z" transform="translate(-3509.253 -490.403)" style="fill:#fff"/><path d="M3743.735,506.487l0.979,15.89a12.5,12.5,0,0,0-2.38.28q-1.4.281-2.836,0.7a15.817,15.817,0,0,0-2.625,1.015,5.472,5.472,0,0,0-1.819,1.365v24.01h-16.8v-42h8.4l4.619,4.69a24.35,24.35,0,0,1,12.461-5.95m0-5a5,5,0,0,0-.882.078,30.52,30.52,0,0,0-11.1,4.229l-1.532-1.556a5,5,0,0,0-3.562-1.491h-8.4a5,5,0,0,0-5,5v42a5,5,0,0,0,5,5h16.8a5,5,0,0,0,5-5v-21.31c0.27-.1.554-0.195,0.85-0.281,0.81-.237,1.623-0.437,2.412-0.6a7.63,7.63,0,0,1,1.4-.183,5,5,0,0,0,4.99-5.308l-0.979-15.89a5,5,0,0,0-4.99-4.692h0Z" transform="translate(-3509.253 -490.403)"/><path d="M3618.553,650.926a2.5,2.5,0,0,1-2.5-2.4l-0.839-21.8-5.64,22.313a2.5,2.5,0,0,1-2.424,1.888h-18.3a2.5,2.5,0,0,1-2.422-1.881l-5.649-22.113-0.831,21.59a2.5,2.5,0,0,1-2.5,2.4h-25.1a2.5,2.5,0,0,1-2.5-2.653l4.6-75a2.5,2.5,0,0,1,2.5-2.347h31.3a2.5,2.5,0,0,1,2.429,1.909L3598,602.9l7.321-30.07a2.5,2.5,0,0,1,2.429-1.909h31.4a2.5,2.5,0,0,1,2.5,2.35l4.5,75a2.5,2.5,0,0,1-2.5,2.649h-25.1Z" transform="translate(-3509.253 -490.403)" style="fill:#fff"/><path d="M3639.153,573.426l4.5,75h-25.1l-1.4-36.4h-0.8l-9.2,36.4h-18.3l-9.3-36.4h-0.7l-1.4,36.4h-25.1l4.6-75h31.3l9.3,38.2h0.9l9.3-38.2h31.4m0-5h-31.4a5,5,0,0,0-4.858,3.817L3598,592.336l-4.892-20.093a5,5,0,0,0-4.858-3.817h-31.3a5,5,0,0,0-4.991,4.694l-4.6,75a5,5,0,0,0,4.991,5.306h25.1a5,5,0,0,0,5-4.808l0.169-4.4,1.39,5.443a5,5,0,0,0,4.844,3.762h18.3a5,5,0,0,0,4.848-3.775l1.385-5.481,0.171,4.448a5,5,0,0,0,5,4.808h25.1a5,5,0,0,0,4.991-5.3l-4.5-75a5,5,0,0,0-4.991-4.7h0Z" transform="translate(-3509.253 -490.403)"/><path d="M3670.252,652.726a39.172,39.172,0,0,1-9.778-1.13,20.1,20.1,0,0,1-7.811-3.84,17.192,17.192,0,0,1-5.037-7.112,27.968,27.968,0,0,1-1.675-10.218c0-12.335,7.026-19.979,20.927-22.831a57.056,57.056,0,0,0-9.828,2.3,2.5,2.5,0,0,1-3.263-1.953l-2.9-17.2a2.5,2.5,0,0,1,1.729-2.8,97.112,97.112,0,0,1,28.437-3.811c14.279,0,31.3,3.869,31.3,22.3v42a2.5,2.5,0,0,1-2.5,2.5h-12a2.5,2.5,0,0,1-1.768-.732l-5.047-5.047a25.116,25.116,0,0,1-2.869,2.173,31.559,31.559,0,0,1-5.7,2.933,37.69,37.69,0,0,1-6.108,1.822A30.305,30.305,0,0,1,3670.252,652.726Zm7.4-22.5c3.7,0,4.924-.494,5.221-0.652a1.539,1.539,0,0,0,.479-1.147v-3.2h-2.4c-3.275,0-4.709.426-5.272,0.68-0.489.22-.527,1.525-0.527,1.92v2.4h2.5Z" transform="translate(-3509.253 -490.403)" style="fill:#fff"/><path d="M3681.052,586.626q28.8,0,28.8,19.8v42h-12l-6.8-6.8a21.421,21.421,0,0,1-4.25,3.6,28.914,28.914,0,0,1-5.25,2.7,35.024,35.024,0,0,1-5.7,1.7,27.639,27.639,0,0,1-5.6.6,36.52,36.52,0,0,1-9.15-1.05,17.544,17.544,0,0,1-6.85-3.35,14.665,14.665,0,0,1-4.3-6.1,25.4,25.4,0,0,1-1.5-9.3q0-21.6,32.6-21.6h4.8v-4.3q-1.9-.1-3.45-0.2t-2.85-.1q-13.5,0-23.3,3.3l-2.9-17.2a94.189,94.189,0,0,1,27.7-3.7m-8.4,46.1h5q5.2,0,6.8-1.2a4.086,4.086,0,0,0,1.4-3.1v-5.7h-4.9a16.329,16.329,0,0,0-6.3.9q-2,.9-2,4.2v4.9m8.4-51.1a99.579,99.579,0,0,0-29.173,3.921,5,5,0,0,0-3.458,5.61l2.9,17.2a5,5,0,0,0,1.262,2.566c-7.118,5.3-9.132,12.761-9.132,19.5a30.426,30.426,0,0,0,1.849,11.136,19.665,19.665,0,0,0,5.779,8.129,22.566,22.566,0,0,0,8.767,4.325,41.664,41.664,0,0,0,10.406,1.21,32.783,32.783,0,0,0,6.612-.7,40.2,40.2,0,0,0,6.515-1.942,34.061,34.061,0,0,0,6.157-3.168q0.677-.442,1.318-0.913l3.462,3.463a5,5,0,0,0,3.536,1.464h12a5,5,0,0,0,5-5v-42c0-8.2-3.239-14.757-9.367-18.97-5.706-3.923-13.7-5.83-24.433-5.83h0Z" transform="translate(-3509.253 -490.403)"/><path d="M3720.65,650.926a2.5,2.5,0,0,1-2.5-2.5v-60a2.5,2.5,0,0,1,2.5-2.5h12a2.5,2.5,0,0,1,1.781.746l4.966,5.042a37.946,37.946,0,0,1,17.212-7.548,2.5,2.5,0,0,1,2.937,2.307l1.4,22.7a2.5,2.5,0,0,1-2.5,2.654,15.509,15.509,0,0,0-2.911.353c-1.268.254-2.559,0.572-3.835,0.947a20.2,20.2,0,0,0-3.337,1.288,7.021,7.021,0,0,0-1.217.752v33.261a2.5,2.5,0,0,1-2.5,2.5h-24Z" transform="translate(-3509.253 -490.403)" style="fill:#fff"/><path d="M3757.051,586.626l1.4,22.7a17.869,17.869,0,0,0-3.4.4q-2,.4-4.05,1a22.621,22.621,0,0,0-3.75,1.45,7.818,7.818,0,0,0-2.6,1.95v34.3h-24v-60h12l6.6,6.7a34.779,34.779,0,0,1,17.8-8.5m0-5a5,5,0,0,0-.882.079,40.979,40.979,0,0,0-16.521,6.7l-3.435-3.487a5,5,0,0,0-3.562-1.491h-12a5,5,0,0,0-5,5v60a5,5,0,0,0,5,5h24a5,5,0,0,0,5-5V616.567a17.968,17.968,0,0,1,2.756-1.044c1.212-.355,2.433-0.657,3.627-0.9a12.86,12.86,0,0,1,2.417-.3,5,5,0,0,0,4.99-5.308l-1.4-22.7a5,5,0,0,0-4.99-4.692h0Z" transform="translate(-3509.253 -490.403)"/><path d="M3765.65,650.926a2.5,2.5,0,0,1-2.5-2.5v-57a2.5,2.5,0,0,1,2.189-2.48l4.067-.509a11.988,11.988,0,0,1-2.425-.95,9.08,9.08,0,0,1-3.845-3.9,13.772,13.772,0,0,1-1.287-6.463,17.237,17.237,0,0,1,.721-5.32,8.521,8.521,0,0,1,2.958-4.214,12.182,12.182,0,0,1,5.147-2.121,38.008,38.008,0,0,1,7.074-.545,37.2,37.2,0,0,1,7.03.546,12.155,12.155,0,0,1,5.089,2.119,8.505,8.505,0,0,1,2.958,4.214,17.165,17.165,0,0,1,.723,5.321,16.657,16.657,0,0,1-.729,5.291,8.49,8.49,0,0,1-2.355,3.646,2.5,2.5,0,0,1,1.685,2.363v60a2.5,2.5,0,0,1-2.5,2.5h-24Z" transform="translate(-3509.253 -490.403)" style="fill:#fff"/><path d="M3777.751,567.426a35.144,35.144,0,0,1,6.55.5,9.667,9.667,0,0,1,4.05,1.65,6.03,6.03,0,0,1,2.1,3,14.9,14.9,0,0,1,.6,4.55,14.4,14.4,0,0,1-.6,4.5,6.036,6.036,0,0,1-2.1,2.95,9.2,9.2,0,0,1-4.05,1.6,38.95,38.95,0,0,1-6.55.45q-2.9,0-5.351-.2a10.9,10.9,0,0,1-4.25-1.15,6.6,6.6,0,0,1-2.8-2.85,11.525,11.525,0,0,1-1-5.3,14.928,14.928,0,0,1,.6-4.55,6.037,6.037,0,0,1,2.1-3,9.709,9.709,0,0,1,4.1-1.65,35.969,35.969,0,0,1,6.6-.5m11.9,21v60h-24v-57l24-3m-11.9-26a40.427,40.427,0,0,0-7.544.59,14.643,14.643,0,0,0-6.2,2.59,10.98,10.98,0,0,0-3.817,5.426,19.649,19.649,0,0,0-.844,6.095,16.147,16.147,0,0,0,1.577,7.631,12.055,12.055,0,0,0,1.823,2.6,5,5,0,0,0-2.1,4.073v57a5,5,0,0,0,5,5h24a5,5,0,0,0,5-5v-60a5,5,0,0,0-.723-2.591,11.216,11.216,0,0,0,1.267-2.63,19.1,19.1,0,0,0,.857-6.079,19.613,19.613,0,0,0-.844-6.093,10.966,10.966,0,0,0-3.812-5.425,14.606,14.606,0,0,0-6.128-2.589,39.579,39.579,0,0,0-7.515-.594h0Z" transform="translate(-3509.253 -490.403)"/><path d="M3831.049,652.726c-11.571,0-20.274-2.837-25.868-8.433s-8.432-14.3-8.432-25.867c0-11.348,2.756-19.986,8.192-25.677,5.468-5.722,14.251-8.623,26.107-8.623s20.641,2.9,26.108,8.623c5.437,5.691,8.192,14.33,8.192,25.677s-2.756,19.987-8.192,25.677C3851.692,649.824,3842.908,652.726,3831.049,652.726Zm-2.3-22.5c3.351,0,4.761-.42,5.3-0.67a2.457,2.457,0,0,0,.5-1.93v-21h-1.2c-3.352,0-4.762.42-5.3,0.67a2.455,2.455,0,0,0-.5,1.93v21h1.2Z" transform="translate(-3509.253 -490.403)" style="fill:#fff"/><path d="M3831.049,586.626q16.8,0,24.3,7.85t7.5,23.95q0,16.1-7.5,23.95t-24.3,7.85q-16.4,0-24.1-7.7t-7.7-24.1q0-16.1,7.5-23.95t24.3-7.85m-6,46.1h3.7a16.29,16.29,0,0,0,6.351-.9q1.95-.9,1.949-4.2v-23.5h-3.7a16.28,16.28,0,0,0-6.351.9q-1.95.9-1.95,4.2v23.5m6-51.1c-12.565,0-21.957,3.161-27.915,9.4-5.9,6.172-8.885,15.392-8.885,27.4,0,12.259,3.084,21.557,9.165,27.636s15.376,9.164,27.635,9.164c12.568,0,21.961-3.161,27.916-9.4,5.9-6.17,8.885-15.39,8.885-27.4s-2.989-21.232-8.885-27.4c-5.958-6.235-15.35-9.4-27.916-9.4h0Zm-0.943,26.92h0Zm-0.057.787a17.058,17.058,0,0,1,2-.182v18.368a17.06,17.06,0,0,1-2,.182V609.333h0Z" transform="translate(-3509.253 -490.403)"/><path d="M3935.047,652.726c-7.369,0-13.592-.834-18.494-2.479a27,27,0,0,1-12.207-7.9,30.3,30.3,0,0,1-6.289-13.28,84.188,84.188,0,0,1-1.709-18.044,86.734,86.734,0,0,1,1.6-17.666A31.2,31.2,0,0,1,3904,580a26.83,26.83,0,0,1,11.937-8.227c4.823-1.759,10.948-2.651,18.208-2.651,1.592,0,3.4.087,5.367,0.259,1.924,0.169,3.854.394,5.741,0.667s3.687,0.6,5.387.984a22.176,22.176,0,0,1,4.459,1.423,2.5,2.5,0,0,1,1.4,2.747l-3.6,18.4a2.5,2.5,0,0,1-2.973,1.965,67.519,67.519,0,0,0-13.78-1.646c-5.162,0-7.176.6-7.917,0.954-0.325.156-1.083,0.52-1.083,2.546v29.335c0.8,0.134,1.606.243,2.411,0.328a43.155,43.155,0,0,0,4.589.236,51.141,51.141,0,0,0,17.257-2.753,2.5,2.5,0,0,1,3.333,2.132l1.8,20.2a2.5,2.5,0,0,1-1.557,2.541C3949.569,651.622,3942.863,652.726,3935.047,652.726Z" transform="translate(-3509.253 -490.403)" style="fill:#fff"/><path d="M3934.148,571.626q2.3,0,5.149.25t5.6,0.65q2.75,0.4,5.2.95a19.939,19.939,0,0,1,3.949,1.25l-3.6,18.4a69.638,69.638,0,0,0-14.3-1.7q-6.5,0-9,1.2t-2.5,4.8v31.4a42.958,42.958,0,0,0,4.649.75,45.626,45.626,0,0,0,4.851.25,53.388,53.388,0,0,0,18.1-2.9l1.8,20.2q-7.7,3.1-19,3.1-10.7,0-17.7-2.35a24.413,24.413,0,0,1-11.1-7.15,27.7,27.7,0,0,1-5.75-12.2,81.309,81.309,0,0,1-1.649-17.5,83.829,83.829,0,0,1,1.55-17.15,28.606,28.606,0,0,1,5.55-12.3,24.264,24.264,0,0,1,10.85-7.45q6.85-2.5,17.351-2.5m0-5c-7.552,0-13.967.943-19.064,2.8a29.291,29.291,0,0,0-13.025,9,33.664,33.664,0,0,0-6.553,14.412,89.156,89.156,0,0,0-1.657,18.18,86.62,86.62,0,0,0,1.769,18.588,32.751,32.751,0,0,0,6.829,14.36,29.435,29.435,0,0,0,13.312,8.642c5.159,1.731,11.649,2.609,19.289,2.609,8.138,0,15.158-1.164,20.866-3.461a5,5,0,0,0,3.114-5.082l-1.8-20.2a5,5,0,0,0-6.667-4.263,48.668,48.668,0,0,1-16.413,2.607,40.833,40.833,0,0,1-4.319-.222l-0.181-.02V597.426a4.068,4.068,0,0,1,.02-0.421,24.336,24.336,0,0,1,6.48-.579,65.041,65.041,0,0,1,13.261,1.591,5,5,0,0,0,5.946-3.931l3.6-18.4a5,5,0,0,0-2.8-5.493,24.553,24.553,0,0,0-4.962-1.595c-1.768-.395-3.642-0.737-5.576-1.019s-3.915-.51-5.884-0.683c-2.044-.179-3.923-0.269-5.587-0.269h0Z" transform="translate(-3509.253 -490.403)"/><path d="M3980.046,652.726a39.164,39.164,0,0,1-9.777-1.13,20.1,20.1,0,0,1-7.811-3.84,17.192,17.192,0,0,1-5.037-7.112,27.968,27.968,0,0,1-1.675-10.218c0-12.335,7.026-19.979,20.927-22.831a57.068,57.068,0,0,0-9.829,2.3,2.5,2.5,0,0,1-3.263-1.953l-2.9-17.2a2.5,2.5,0,0,1,1.729-2.8,97.112,97.112,0,0,1,28.437-3.811c14.279,0,31.3,3.869,31.3,22.3v42a2.5,2.5,0,0,1-2.5,2.5h-12a2.5,2.5,0,0,1-1.768-.732l-5.047-5.047a25.116,25.116,0,0,1-2.869,2.173,31.559,31.559,0,0,1-5.7,2.933,37.69,37.69,0,0,1-6.108,1.822A30.307,30.307,0,0,1,3980.046,652.726Zm7.4-22.5c3.7,0,4.922-.493,5.221-0.652a1.54,1.54,0,0,0,.479-1.147v-3.2h-2.4c-3.275,0-4.709.426-5.272,0.68-0.489.22-.527,1.525-0.527,1.92v2.4h2.5Z" transform="translate(-3509.253 -490.403)" style="fill:#fff"/><path d="M3990.847,586.626q28.8,0,28.8,19.8v42h-12l-6.8-6.8a21.421,21.421,0,0,1-4.25,3.6,28.914,28.914,0,0,1-5.25,2.7,35.024,35.024,0,0,1-5.7,1.7,27.641,27.641,0,0,1-5.6.6,36.518,36.518,0,0,1-9.149-1.05,17.555,17.555,0,0,1-6.851-3.35,14.663,14.663,0,0,1-4.3-6.1,25.4,25.4,0,0,1-1.5-9.3q0-21.6,32.6-21.6h4.8v-4.3q-1.9-.1-3.45-0.2t-2.85-.1q-13.5,0-23.3,3.3l-2.9-17.2a94.189,94.189,0,0,1,27.7-3.7m-8.4,46.1h5q5.2,0,6.8-1.2a4.09,4.09,0,0,0,1.4-3.1v-5.7h-4.9a16.329,16.329,0,0,0-6.3.9q-2,.9-2,4.2v4.9m8.4-51.1a99.579,99.579,0,0,0-29.173,3.921,5,5,0,0,0-3.458,5.609l2.9,17.2a5,5,0,0,0,1.262,2.566c-7.118,5.3-9.131,12.761-9.131,19.5a30.426,30.426,0,0,0,1.849,11.136,19.663,19.663,0,0,0,5.778,8.129,22.58,22.58,0,0,0,8.768,4.325,41.66,41.66,0,0,0,10.4,1.21,32.787,32.787,0,0,0,6.613-.7,40.2,40.2,0,0,0,6.515-1.942,34.06,34.06,0,0,0,6.157-3.168q0.677-.442,1.318-0.913l3.462,3.463a5,5,0,0,0,3.536,1.464h12a5,5,0,0,0,5-5v-42c0-8.2-3.239-14.757-9.368-18.97-5.706-3.923-13.7-5.83-24.432-5.83h0Z" transform="translate(-3509.253 -490.403)"/><path d="M4030.445,650.926a2.5,2.5,0,0,1-2.5-2.5v-60a2.5,2.5,0,0,1,2.5-2.5h12a2.5,2.5,0,0,1,1.781.746l4.966,5.042a37.95,37.95,0,0,1,17.212-7.548,2.5,2.5,0,0,1,2.937,2.307l1.4,22.7a2.5,2.5,0,0,1-2.5,2.654,15.473,15.473,0,0,0-2.91.353c-1.268.254-2.56,0.572-3.837,0.947a20.2,20.2,0,0,0-3.337,1.288,7.07,7.07,0,0,0-1.216.751v33.262a2.5,2.5,0,0,1-2.5,2.5h-24Z" transform="translate(-3509.253 -490.403)" style="fill:#fff"/><path d="M4066.846,586.626l1.4,22.7a17.851,17.851,0,0,0-3.4.4q-2,.4-4.051,1a22.622,22.622,0,0,0-3.75,1.45,7.813,7.813,0,0,0-2.6,1.95v34.3h-24v-60h12l6.6,6.7a34.786,34.786,0,0,1,17.8-8.5m0-5a5,5,0,0,0-.882.079,40.988,40.988,0,0,0-16.522,6.7l-3.434-3.487a5,5,0,0,0-3.562-1.491h-12a5,5,0,0,0-5,5v60a5,5,0,0,0,5,5h24a5,5,0,0,0,5-5V616.567a17.967,17.967,0,0,1,2.755-1.043c1.213-.355,2.434-0.657,3.628-0.9a12.849,12.849,0,0,1,2.417-.3,5,5,0,0,0,4.99-5.308l-1.4-22.7a5,5,0,0,0-4.99-4.692h0Z" transform="translate(-3509.253 -490.403)"/><path d="M4098.846,652.726a28.139,28.139,0,0,1-13.272-2.892,24.883,24.883,0,0,1-8.825-7.723,31.463,31.463,0,0,1-4.787-11.02,57.525,57.525,0,0,1-.157-24.653,29.675,29.675,0,0,1,4.377-10.422,22.984,22.984,0,0,1,8.289-7.347,26.589,26.589,0,0,1,12.575-2.744h11.3v-15.5a2.5,2.5,0,0,1,2.313-2.493l24-1.8c0.062,0,.124-0.007.187-0.007a2.5,2.5,0,0,1,2.5,2.5v79.8a2.5,2.5,0,0,1-2.5,2.5h-12a2.5,2.5,0,0,1-1.732-.7l-3.347-3.217C4113.679,650.806,4107.332,652.726,4098.846,652.726Zm3.7-22.5a15.355,15.355,0,0,0,5.153-.584c0.125-.048.5-0.191,0.647-1.36V606.626h-1.2c-3.351,0-4.762.42-5.3,0.67a2.46,2.46,0,0,0-.5,1.93v21h1.2Z" transform="translate(-3509.253 -490.403)" style="fill:#fff"/><path d="M4134.846,568.626v79.8h-12l-5.2-5q-5.1,6.8-18.8,6.8a25.587,25.587,0,0,1-12.1-2.6,22.3,22.3,0,0,1-7.95-6.95,28.852,28.852,0,0,1-4.4-10.15,55.044,55.044,0,0,1-.15-23.55,27.06,27.06,0,0,1,4-9.55,20.411,20.411,0,0,1,7.4-6.55,24.032,24.032,0,0,1,11.4-2.45h13.8v-18l24-1.8m-36,64.1h3.7a18.045,18.045,0,0,0,6.051-.75q1.95-.75,2.25-3.55v-24.3h-3.7a16.284,16.284,0,0,0-6.351.9q-1.95.9-1.949,4.2v23.5m36-69.1c-0.124,0-.249,0-0.374.014l-24,1.8a5,5,0,0,0-4.626,4.986v13h-8.8a29.031,29.031,0,0,0-13.75,3.037,25.456,25.456,0,0,0-9.179,8.143,32.152,32.152,0,0,0-4.754,11.294,60.038,60.038,0,0,0,.164,25.76,33.95,33.95,0,0,0,5.176,11.887,27.356,27.356,0,0,0,9.7,8.5,30.6,30.6,0,0,0,14.444,3.183c7.994,0,14.284-1.637,18.786-4.877l1.749,1.682a5,5,0,0,0,3.465,1.4h12a5,5,0,0,0,5-5v-79.8a5,5,0,0,0-5-5h0ZM4103.9,608.544h0Zm-0.057.789a17.061,17.061,0,0,1,2-.182v18.376a17.9,17.9,0,0,1-2,.174V609.333h0Z" transform="translate(-3509.253 -490.403)"/><path d="M4170.745,652.726a100.287,100.287,0,0,1-27.59-3.6,2.5,2.5,0,0,1-1.772-2.838l3-17a2.5,2.5,0,0,1,3.167-1.964,75.162,75.162,0,0,0,10.16,2.226,72.391,72.391,0,0,0,7.535.7q-1.7-.23-3.227-0.525a31.418,31.418,0,0,1-11.3-4.216,16.748,16.748,0,0,1-6.552-7.974,29.9,29.9,0,0,1-1.823-10.914c0-8.688,3.066-14.745,9.114-18,5.469-2.983,12.971-4.5,22.286-4.5a81.275,81.275,0,0,1,25.483,3.826,2.5,2.5,0,0,1,1.68,2.8l-2.8,16.3a2.5,2.5,0,0,1-3.178,1.973,57.192,57.192,0,0,0-8.909-1.916q-1.091-.144-2.2-0.251a35.771,35.771,0,0,1,7.863,2.325,21.611,21.611,0,0,1,8.808,6.891c2.358,3.134,3.554,7.357,3.554,12.556a34.47,34.47,0,0,1-1.2,9.437,16.424,16.424,0,0,1-4.035,7.23,26.3,26.3,0,0,1-5.516,4.125,22.1,22.1,0,0,1-7.49,2.281c-2.171.339-4.548,0.6-7.041,0.771S4173.577,652.726,4170.745,652.726Z" transform="translate(-3509.253 -490.403)" style="fill:#fff"/><path d="M4173.746,586.626a78.416,78.416,0,0,1,24.7,3.7l-2.8,16.3a59.585,59.585,0,0,0-9.3-2,72.554,72.554,0,0,0-9.4-.6q-1.4,0-3.449.1t-4.65.4v3.8q5.5,0,11.3.55a34.812,34.812,0,0,1,10.55,2.6,19.045,19.045,0,0,1,7.8,6.1q3.048,4.05,3.05,11.05a31.872,31.872,0,0,1-1.1,8.75,13.916,13.916,0,0,1-3.4,6.15,23.585,23.585,0,0,1-4.95,3.7,19.85,19.85,0,0,1-6.65,2q-3.2.5-6.85,0.75t-7.85.25a97.343,97.343,0,0,1-26.9-3.5l3-17a76.192,76.192,0,0,0,21.8,3.1q2.7,0,5.15-.1t4.75-.4v-3.8a86.229,86.229,0,0,1-16.05-1.25,28.848,28.848,0,0,1-10.4-3.85,14.228,14.228,0,0,1-5.6-6.8,27.308,27.308,0,0,1-1.65-10q0-11.6,7.8-15.8,7.7-4.2,21.1-4.2m0-5c-9.875,0-17.561,1.573-23.5,4.81-8.6,4.629-10.405,13.535-10.405,20.19a32.362,32.362,0,0,0,2,11.829,18.889,18.889,0,0,0,4.1,6.353,5,5,0,0,0-4.018,4.048l-3,17a5,5,0,0,0,3.545,5.675,102.778,102.778,0,0,0,28.279,3.694c2.889,0,5.645-.088,8.19-0.262,2.566-.176,5.015-0.445,7.28-0.8a24.382,24.382,0,0,0,8.288-2.559,28.686,28.686,0,0,0,6-4.472l0.076-.075a18.888,18.888,0,0,0,4.67-8.31,36.985,36.985,0,0,0,1.293-10.125c0-5.753-1.364-10.482-4.055-14.057a24.108,24.108,0,0,0-3.785-3.989,5,5,0,0,0,1.867-3.107l2.8-16.3a5,5,0,0,0-3.36-5.594,83.761,83.761,0,0,0-26.267-3.952h0Z" transform="translate(-3509.253 -490.403)"/><path d="M4364.327,607.042l-14.9-12.5,2.363-8.82a5.553,5.553,0,0,0-4.006-6.658L4338,576.482v-4.465a4.837,4.837,0,0,0-5.111-5.018h-16.781l-12.855-11a5.442,5.442,0,0,0-7.658.565l-5.869,6.943-18.791-5.061a5.574,5.574,0,0,0-6.658,4.04L4263.122,567h-9.959a4.879,4.879,0,0,0-5.163,5.018v41.5L4221.191,645.3a5.445,5.445,0,0,0,.6,7.658l14.868,12.5-2.38,8.82a5.531,5.531,0,0,0,3.972,6.658l9.748,2.578v4.465a4.879,4.879,0,0,0,5.163,5.018h16.781l12.855,11a5.442,5.442,0,0,0,7.658-.565l5.869-6.943,18.791,5.061a5.574,5.574,0,0,0,6.658-4.04L4322.93,693h9.959a4.837,4.837,0,0,0,5.111-5.018v-41.5l26.835-31.787A5.437,5.437,0,0,0,4364.327,607.042Z" transform="translate(-3509.253 -490.403)" style="fill:#fff"/><path d="M4299.767,550h0a9.947,9.947,0,0,0-7.641,3.554l-4.014,4.784-16-4.288a9.976,9.976,0,0,0-12.205,7.021l-0.256.929h-6.483A10.192,10.192,0,0,0,4243,572.018v39.846l-25.514,30.524a9.982,9.982,0,0,0,1.278,14.04l12.716,10.65-1.6,6.033a9.922,9.922,0,0,0,6.954,12.206l6.17,1.678v0.989A10.192,10.192,0,0,0,4253.163,698h15.132l11.592,9.7a9.993,9.993,0,0,0,14.04-1.248l4.014-4.788,16,4.286a9.979,9.979,0,0,0,12.205-7.022l0.256-.93h6.483A10.147,10.147,0,0,0,4343,687.982V648.136l25.54-30.524a10.01,10.01,0,0,0-1.283-14.04l-12.7-10.65,1.612-6.033a9.935,9.935,0,0,0-6.976-12.206L4343,573.006v-0.989A10.147,10.147,0,0,0,4332.889,562h-15.132l-11.592-9.7a9.944,9.944,0,0,0-6.4-2.3h0Z" transform="translate(-3509.253 -490.403)"/><rect x="738.474" y="75.762" width="90.598" height="126.837" rx="6" ry="6" style="fill:#fff"/><path d="M4251.765,566.349a5.4,5.4,0,0,1,1.4-.184h79.726a5.452,5.452,0,0,1,5.436,5.436V687.566a5.458,5.458,0,0,1-4.037,5.252,5.4,5.4,0,0,1-1.4.184h-79.726a5.452,5.452,0,0,1-5.436-5.436V571.6a5.458,5.458,0,0,1,4.037-5.252m-0.586-2.188a7.717,7.717,0,0,0-5.716,7.44V687.566a7.71,7.71,0,0,0,7.7,7.7h79.726a7.7,7.7,0,0,0,7.7-7.7V571.6a7.71,7.71,0,0,0-7.7-7.7h-79.726a7.67,7.67,0,0,0-1.985.261h0Z" transform="translate(-3509.253 -490.403)"/><rect x="4247.727" y="566.165" width="90.598" height="126.837" rx="6" ry="6" transform="matrix(0.966, 0.259, -0.259, 0.966, -3200.024, -1580.068)" style="fill:#fff"/><path d="M4269.537,557.824a5.4,5.4,0,0,1,1.4.185l77.009,20.635a5.452,5.452,0,0,1,3.844,6.658l-30.014,112.014a5.458,5.458,0,0,1-5.259,4.028,5.4,5.4,0,0,1-1.4-.185l-77.009-20.635a5.452,5.452,0,0,1-3.844-6.658l30.014-112.014a5.458,5.458,0,0,1,5.259-4.028m0-2.265a7.717,7.717,0,0,0-7.447,5.707L4232.076,673.28a7.71,7.71,0,0,0,5.445,9.432l77.009,20.635a7.7,7.7,0,0,0,9.432-5.445l30.014-112.014a7.71,7.71,0,0,0-5.445-9.431l-77.009-20.635a7.67,7.67,0,0,0-1.985-.262h0Z" transform="translate(-3509.253 -490.403)"/><rect x="4247.727" y="566.618" width="90.598" height="126.837" rx="5" ry="5" transform="translate(-2099.896 -3102.507) rotate(40)" style="fill:#fff"/><path d="M4299.766,554.567a5.407,5.407,0,0,1,3.487,1.265l61.407,51.527a5.015,5.015,0,0,1,.616,7.044l-74.821,89.168a5.451,5.451,0,0,1-7.658.67l-61.407-51.527a5.015,5.015,0,0,1-.616-7.044L4295.6,556.5a5.431,5.431,0,0,1,4.171-1.935m0-2.265h0a7.688,7.688,0,0,0-5.906,2.745L4219.32,643.88a7.717,7.717,0,0,0,.949,10.849l61.427,51.544a4.65,4.65,0,0,0,.9.61,7.816,7.816,0,0,0,9.595-1.856l74.541-88.834a7.717,7.717,0,0,0-.949-10.849L4304.71,554.1a7.7,7.7,0,0,0-4.943-1.8h0Z" transform="translate(-3509.253 -490.403)"/><rect x="4237.309" y="592.855" width="111.435" height="75.196" transform="translate(-2458.686 3023.451) rotate(-50)" style="fill:red"/><circle cx="4293.2" cy="630.182" r="33.974" transform="translate(-2458.417 3023.487) rotate(-50)" style="fill:#fff"/><polygon points="755.131 127.793 757.665 141.41 780.878 127.554 780.851 143.771 796.817 140.928 787.146 166.148 801.053 166.325 810.652 129.08 790.578 132.179 790.032 111.778 755.131 127.793" style="fill:red"/></svg>