<?xml version="1.0" standalone="no"?>
<!DOCTYPE svg PUBLIC "-//W3C//DTD SVG 20010904//EN"
 "http://www.w3.org/TR/2001/REC-SVG-20010904/DTD/svg10.dtd">
<svg version="1.0" xmlns="http://www.w3.org/2000/svg"
 width="640.000000pt" height="640.000000pt" viewBox="0 0 640.000000 640.000000"
 preserveAspectRatio="xMidYMid meet">
<metadata>
Created by potrace 1.11, written by Peter Selinger 2001-2013
</metadata>
<g transform="translate(0.000000,640.000000) scale(0.100000,-0.100000)"
fill="#000000" stroke="none">
<path d="M3349 6381 c-75 -24 -133 -66 -199 -142 -30 -35 -57 -66 -60 -69 -3
-3 -23 -27 -44 -53 -33 -42 -43 -48 -65 -43 -23 5 -146 38 -396 106 -44 12
-87 23 -95 25 -8 2 -42 11 -75 21 -107 31 -237 27 -315 -9 -74 -35 -180 -132
-180 -166 0 -6 -4 -11 -8 -11 -7 0 -36 -82 -37 -105 0 -5 -29 -11 -65 -12 -36
-1 -67 -2 -70 -3 -3 -1 -9 -1 -15 0 -42 10 -206 -5 -237 -21 -10 -5 -18 -7
-18 -3 0 15 -117 -62 -156 -104 -44 -46 -87 -122 -100 -177 -4 -16 -8 -403 -9
-858 -2 -707 -5 -830 -17 -845 -8 -9 -59 -71 -114 -137 -54 -66 -101 -122
-104 -125 -3 -3 -37 -43 -75 -90 -38 -47 -79 -96 -91 -110 -22 -24 -61 -72
-134 -160 -19 -23 -44 -53 -55 -65 -11 -13 -32 -38 -47 -56 -14 -19 -35 -44
-46 -57 -11 -13 -35 -41 -54 -64 -18 -23 -37 -46 -43 -52 -5 -6 -32 -38 -60
-71 -27 -33 -57 -69 -67 -80 -203 -231 -238 -332 -185 -530 17 -62 88 -147
197 -236 50 -40 155 -128 184 -154 15 -13 173 -144 212 -176 36 -29 36 -31 0
-164 -9 -33 -19 -71 -22 -85 -3 -14 -9 -41 -14 -60 -27 -102 18 -250 103 -340
65 -69 126 -100 262 -133 73 -18 152 -42 158 -48 5 -4 10 -35 12 -69 8 -150
132 -304 283 -351 27 -9 323 -22 427 -19 49 1 186 1 210 -1 17 -1 35 0 40 1
28 7 55 -3 90 -34 35 -30 206 -172 258 -216 10 -8 28 -23 40 -33 12 -11 39
-33 60 -50 22 -18 51 -42 65 -55 67 -58 170 -91 268 -87 151 6 233 61 393 260
61 76 49 73 191 35 25 -7 52 -14 60 -16 8 -2 49 -13 90 -24 328 -91 402 -108
470 -106 69 3 160 23 160 36 0 4 11 11 24 14 59 15 182 174 193 250 2 11 5 22
7 24 2 2 82 5 178 6 141 2 181 6 218 21 111 46 205 140 244 248 18 50 19 91
21 890 1 496 6 842 11 845 5 4 41 45 79 92 39 47 78 94 88 105 10 11 28 33 40
48 12 16 33 41 47 55 14 15 37 43 52 62 15 19 39 49 53 65 15 17 39 45 53 64
15 18 36 43 47 55 11 12 36 42 55 66 19 24 46 57 60 72 14 15 36 42 50 60 14
18 36 45 50 60 14 14 43 49 65 77 22 28 43 51 47 51 5 0 8 5 8 10 0 6 8 18 18
28 15 17 66 76 117 139 11 14 34 40 52 59 17 19 28 34 25 34 -4 0 0 6 8 13 9
7 25 28 36 47 70 121 70 278 -1 399 -37 62 -81 107 -194 197 -13 10 -31 26
-40 34 -9 8 -39 33 -66 54 -28 22 -54 45 -60 50 -5 6 -50 45 -100 86 -125 103
-138 118 -130 138 4 9 8 24 10 32 2 8 10 42 19 75 9 33 19 71 22 85 3 14 8 34
11 45 19 57 1 219 -28 250 -5 5 -9 14 -9 21 0 24 -106 136 -150 158 -37 20
-133 51 -231 76 -48 12 -92 26 -99 30 -7 4 -14 32 -16 61 -4 75 -9 91 -44 160
-65 129 -197 212 -345 218 -33 2 -63 5 -67 7 -5 3 -8 1 -8 -5 0 -6 -6 -8 -13
-5 -24 9 -97 10 -97 1 0 -4 -5 -5 -11 -2 -8 6 -87 7 -269 4 -8 0 -46 1 -83 2
l-69 2 -86 70 c-48 39 -89 74 -92 77 -4 4 -143 121 -204 171 -6 5 -29 25 -51
44 -119 104 -272 140 -406 96z"/>
</g>
</svg>
